<svg height="606" width="720" xmlns="http://www.w3.org/2000/svg">
<rect height="606" fill="#555" width="720"></rect>
<text fill="#7f7" font-family="Courier New" font-size="12" xml:space="preserve">
<tspan x="10" y="26">5 megabytes installed</tspan>
<tspan x="10" y="42"></tspan>
<tspan x="10" y="58">node_modules</tspan>
<tspan x="10" y="74">└─┬ wpapi@1.0.3 </tspan>
<tspan x="10" y="90">  ├── es6-promise@3.3.1 </tspan>
<tspan x="10" y="106">  ├── li@1.2.1 </tspan>
<tspan x="10" y="122">  ├── lodash.uniq@4.5.0 </tspan>
<tspan x="10" y="138">  ├─┬ node.extend@1.1.6 </tspan>
<tspan x="10" y="154">  │ └── is@3.2.1 </tspan>
<tspan x="10" y="170">  ├─┬ parse-link-header@0.4.1 </tspan>
<tspan x="10" y="186">  │ └── xtend@4.0.1 </tspan>
<tspan x="10" y="202">  ├── qs@6.4.0 </tspan>
<tspan x="10" y="218">  ├── route-parser@0.0.4 </tspan>
<tspan x="10" y="234">  └─┬ superagent@3.5.2 </tspan>
<tspan x="10" y="250">    ├── component-emitter@1.2.1 </tspan>
<tspan x="10" y="266">    ├── cookiejar@2.1.1 </tspan>
<tspan x="10" y="282">    ├─┬ debug@2.6.3 </tspan>
<tspan x="10" y="298">    │ └── ms@0.7.2 </tspan>
<tspan x="10" y="314">    ├── extend@3.0.0 </tspan>
<tspan x="10" y="330">    ├─┬ form-data@2.1.4 </tspan>
<tspan x="10" y="346">    │ ├── asynckit@0.4.0 </tspan>
<tspan x="10" y="362">    │ ├─┬ combined-stream@1.0.5 </tspan>
<tspan x="10" y="378">    │ │ └── delayed-stream@1.0.0 </tspan>
<tspan x="10" y="394">    │ └─┬ mime-types@2.1.15 </tspan>
<tspan x="10" y="410">    │   └── mime-db@1.27.0 </tspan>
<tspan x="10" y="426">    ├── formidable@1.1.1 </tspan>
<tspan x="10" y="442">    ├── methods@1.1.2 </tspan>
<tspan x="10" y="458">    ├── mime@1.3.4 </tspan>
<tspan x="10" y="474">    └─┬ readable-stream@2.2.9 </tspan>
<tspan x="10" y="490">      ├── buffer-shims@1.0.0 </tspan>
<tspan x="10" y="506">      ├── core-util-is@1.0.2 </tspan>
<tspan x="10" y="522">      ├── inherits@2.0.3 </tspan>
<tspan x="10" y="538">      ├── isarray@1.0.0 </tspan>
<tspan x="10" y="554">      ├── process-nextick-args@1.0.7 </tspan>
<tspan x="10" y="570">      ├── string_decoder@1.0.0 </tspan>
<tspan x="10" y="586">      └── util-deprecate@1.0.2</tspan>
</text>
</svg>
